<?xml version="1.0" encoding="UTF-8" standalone="no"?>
<!-- Created with Inkscape (http://www.inkscape.org/) -->

<svg
   version="1.1"
   id="svg1"
   width="512"
   height="512"
   viewBox="0 0 512 512"
   xmlns:xlink="http://www.w3.org/1999/xlink"
   xmlns="http://www.w3.org/2000/svg"
   xmlns:svg="http://www.w3.org/2000/svg">
  <defs
     id="defs1" />
  <g
     id="g1"
     transform="matrix(2.1585255,0,0,2.1585255,-301.96504,-295.3532)">
    <path
         style="fill:#535584"
       d="m 324.31641,202.27539 c -5.47661,-0.23629 -15.2576,13.0169 -15.23047,22.8457 0.008,2.90179 -1.36456,22.37152 21.875,32.50391 29.16197,-8.27478 42.60547,-29.07031 42.60547,-29.07031 0,0 -5.42978,-8.81779 -25.34766,-18.26758 -8.30268,-3.9391 -14.64738,-6.05028 -23.38672,-7.94531 -0.16723,-0.0363 -0.33896,-0.0588 -0.51562,-0.0664 z m 5.72656,12.58008 a 6.6755614,6.6755614 0 0 1 6.67383,6.67578 6.6755614,6.6755614 0 0 1 -6.67383,6.67578 6.6755614,6.6755614 0 0 1 -6.67578,-6.67578 6.6755614,6.6755614 0 0 1 6.67578,-6.67578 z"
       id="path5" />
    <path
       style="fill:#535584"
       d="m 326.09863,259.67419 -3.9858,-2.76395 c 0,0 -12.61068,5.35963 -21.81627,6.47493 -7.08118,0.85791 -20.22886,1.62624 -20.22886,1.62624 0,0 0.86105,8.43154 2.19625,11.7216 4.07021,-0.64475 8.12652,-1.31947 8.12652,-1.31947 l -6.4569,4.19904 1.52358,3.93991 6.64452,-2.46907 -5.97185,4.49467 2.9105,13.43814 c 0,0 25.11087,-14.69261 29.22371,-37.14648 4.81112,-2.03195 7.8346,-2.19556 7.8346,-2.19556 z"
       id="path2" />
    <path
       style="fill:#535584"
       d="m 320.63312,200.57234 c 0,0 -13.73658,-16.77083 -24.63973,-23.22157 -10.90314,-6.45073 -23.26245,-13.03952 -29.84299,-13.19837 -6.58054,-0.15885 9.72631,10.35488 9.72631,10.35488 l -5.73754,-0.84372 0.0212,5.77267 6.10937,3.35625 c 0,0 -2.67065,0.88245 -7.68673,-0.24921 -5.01609,-1.13165 -4.43018,4.02248 -4.43018,4.02248 l 7.07501,2.84098 c 0,0 -5.31908,1.32636 -9.62447,0.85233 -4.30539,-0.47404 0.79066,4.50977 0.79066,4.50977 l 4.67651,5.10968 c 0,0 -12.09081,2.77226 -17.91325,5.42198 -7.97969,-2.78755 -15.09809,-6.23559 -15.09809,-6.23559 0,0 -12.57159,-7.22705 -31.49673,-5.07525 -18.92515,2.1518 -21.34158,5.39402 -21.34158,5.39402 0,0 11.95484,8.01555 13.98437,12.59956 2.02952,4.584 4.70484,0.31482 4.70484,0.31482 l -2.52938,2.75241 1.21593,3.86292 4.51623,0.48443 -3.81989,0.92619 0.36862,6.20189 4.61376,0.89249 -4.46782,0.58913 c 0,0 1.165,20.07008 -7.12019,34.6131 -8.2852,14.54302 -16.601,13.95345 -16.91491,13.96267 -0.31391,0.009 -10.91613,1.66611 -15.5324,-13.45852 -0.87457,-12.67952 8.97257,-10.73318 8.97257,-10.73318 0,0 3.37385,1.59525 -1.33568,7.6473 -3.53588,4.54384 4.39683,4.20176 4.39683,4.20176 0,0 5.2427,-1.56768 4.42121,-9.51582 -0.89865,-8.69468 -8.43723,-8.24862 -8.43723,-8.24862 0,0 -7.12342,0.2596 -12.45971,9.15366 -5.33629,8.89405 -8.75421,21.68652 -7.95746,30.77134 0.79675,9.08481 3.00699,30.36184 27.62665,48.03879 24.61965,17.67696 53.84195,9.30714 53.84195,9.30714 0,0 35.15448,-9.71957 43.86285,-40.45426 2.75097,-9.70909 2.60776,-31.32956 2.60776,-31.32956 0,0 -0.67724,-19.41833 15.21779,-27.54663 15.89503,-8.1283 -13.16392,2.19444 -25.11615,17.30952 -5.1003,8.09204 -7.89645,14.06657 -11.27854,29.72032 -1.00103,7.33034 -12.45489,22.52213 -23.35019,29.43646 -10.71552,6.80025 -25.42062,10.05218 -37.54716,6.30883 -17.41996,-5.37736 -34.88031,-12.42874 -39.44371,-37.88844 -0.82984,-9.71104 -0.8949,-18.42135 3.30173,-26.06516 0.32912,11.39811 9.5961,16.29719 17.58012,16.268 12.20402,-0.0446 22.0996,-13.93375 26.68965,-25.06238 7.29905,-13.31588 20.18806,-26.23883 33.66532,-35.36206 13.50363,-9.14107 29.41979,-15.04278 45.42697,-18.15366 12.95788,-2.51826 28.35087,6.75859 39.60067,-0.14723 0.0666,-0.0409 0.10683,-0.20854 0.10683,-0.20854 z"
       id="path3" />
  </g>
</svg>
