<?xml version="1.0" encoding="UTF-8" standalone="no"?>
<!-- Created with Inkscape (http://www.inkscape.org/) -->

<svg
   version="1.1"
   id="svg1"
   width="512"
   height="512"
   viewBox="0 0 512 512"
   xmlns="http://www.w3.org/2000/svg"
   xmlns:svg="http://www.w3.org/2000/svg">
  <defs
     id="defs1" />
  <g
     id="g1"
     transform="matrix(3.0538165,0,0,2.9341125,-553.24239,-424.65992)">
    <path
       style="fill:#000000"
       d="m 297.67534,300.92021 5.98234,-10.77785 c 0,0 11.56303,-31.12908 38.4577,-49.43649 0.46036,-0.19981 6.70794,-7.2012 6.70794,-7.2012 l -2.37022,0.86628 -5.54887,2.80399 c 0,0 -45.35987,25.95872 -82.21859,34.1231 -36.85872,8.16438 -60.92042,2.8699 -74.09825,-1.09143 -13.17782,-3.96133 15.94041,23.43002 15.94041,23.43002 0,0 6.99459,4.83775 1.60008,7.70142 -3.94929,2.09647 -7.61754,1.18935 -11.8684,1.43601 -2.40205,0.13937 -3.91191,2.75073 0.59529,3.05507 6.28111,0.42412 108.421,0.33624 108.421,0.33624 0,0 0.53958,-2.10842 -1.60043,-5.24539 z"
       id="path1" />
    <path
       style="fill:#000000"
       d="m 250.79371,273.57571 1.43797,-118.32461 2.7075,-0.29456 3.50897,117.49189 z"
       id="path2" />
    <path
       style="fill:#000000"
       d="m 222.84244,224.4185 91.00388,-0.48268 -58.88512,-52.90541 c 0,0 11.14266,45.73952 1.95524,48.79356 -9.18742,3.05404 -2.65388,-1.62342 -2.65388,-1.62342 l -31.25873,1.75186 z"
       id="path3" />
    <path
       style="fill:#000000"
       d="m 250.55101,267.98297 c 0,0 -14.18186,-10.88273 -27.54942,-29.17012 -19.35764,-26.48207 -32.21173,-42.78828 -36.56615,-42.626 -4.35442,0.16227 1.32759,2.83912 1.32759,2.83912 0,0 5.58466,3.54545 4.29819,38.69398 -1.28647,35.14852 -6.07442,34.45212 -6.07442,34.45212 l 4.88731,2.31484 c 0,0 9.13123,-7.63381 46.28586,-9.05008 3.00745,0.055 13.17296,5.1128 13.17296,5.1128 z"
       id="path4" />
    <path
       style="fill:#000000"
       d="m 235.06469,275.8055 2.52474,-12.61085 -5.33626,-0.28141 c 0,0 3.71557,5.95933 -0.8198,13.20281 -4.53538,7.24348 2.80407,2.73461 2.80407,2.73461"
       id="path5" />
    <path
       style="fill:#000000"
       d="m 222.24192,239.67861 c 0,0 2.45086,-38.60944 29.78942,-65.71143 6.0403,-7.17723 -0.0395,-2.34949 -0.0395,-2.34949 0,0 -23.46197,20.2212 -32.04982,65.38937 -6.26212,32.93588 2.29993,2.67155 2.29993,2.67155 z"
       id="path6" />
    <path
       style="fill:#000000"
       d="m 252.80242,161.35995 -10.13921,3.57401 9.91525,-8.51653 z"
       id="path7" />
    <path
       style="fill:#000000"
       d="m 342.97188,237.62625 c 0,0 -72.06232,-45.03068 -72.48018,-52.08548 -0.41787,-7.0548 -3.93285,17.50797 -3.93285,17.50797 l 25.76484,3.44928 47.22318,32.12506 z"
       id="path8" />
  </g>
</svg>
